<svg xmlns="http://www.w3.org/2000/svg" width="150" height="32" viewBox="0 0 150 32" fill="none"><g opacity="0.6"><path d="M16 4 C20 4 24 8 24 12 C28 12 28 20 24 20 C24 24 20 28 16 28 C12 28 8 24 8 20 C4 20 4 12 8 12 C8 8 12 4 16 4Z" stroke="#5B5F60" stroke-width="1.8" fill="none"></path><path d="M16 8 C18 10 18 14 16 16 C18 18 18 22 16 24 C14 22 14 18 16 16 C14 14 14 10 16 8Z" fill="#5B5F60" opacity="0.5"></path><circle cx="16" cy="16" r="3" fill="#5B5F60"></circle><text x="38" y="21" font-family="Arial,Helvetica,sans-serif" font-size="13" font-weight="700" fill="#5B5F60">OpenAI</text></g></svg>