<svg xmlns="http://www.w3.org/2000/svg" width="150" height="32" viewBox="0 0 150 32" fill="none"><g opacity="0.6"><path d="M24 20H10C7.8 20 6 18.2 6 16C6 13.8 7.8 12 10 12C10.3 12 10.6 12 10.9 12.1C11.5 10.3 13.2 9 15.2 9C17.5 9 19.4 10.6 19.8 12.7C20.2 12.4 20.6 12.2 21 12.2C22.7 12.2 24 13.5 24 15.1C25.2 15.5 26 16.6 26 17.8C26 19.1 25.1 20 24 20Z" fill="#5B5F60"></path><path d="M22 24H12" stroke="#5B5F60" stroke-width="2" stroke-linecap="round"></path><path d="M17 20V26" stroke="#5B5F60" stroke-width="2" stroke-linecap="round"></path><text x="38" y="21" font-family="Arial,Helvetica,sans-serif" font-size="13" font-weight="700" fill="#5B5F60">Cloudflare</text></g></svg>