<svg xmlns="http://www.w3.org/2000/svg" width="150" height="32" viewBox="0 0 150 32" fill="none"><g opacity="0.6"><circle cx="16" cy="16" r="14" fill="#5B5F60"></circle><path d="M16 7C11 7 7 11 7 16C7 20 9.9 23.4 13.7 24.5C14.2 24.6 14.4 24.3 14.4 24C14.4 23.7 14.4 22.9 14.4 21.8C11.7 22.4 11.1 20.5 11.1 20.5C10.7 19.5 10.1 19.2 10.1 19.2C9.2 18.6 10.1 18.6 10.1 18.6C11.1 18.7 11.6 19.6 11.6 19.6C12.5 21.1 14 20.7 14.4 20.4C14.5 19.8 14.7 19.4 15 19.1C12.7 18.9 10.3 18 10.3 14.2C10.3 13.1 10.7 12.2 11.4 11.5C11.3 11.3 10.9 10.2 11.5 8.8C11.5 8.8 12.4 8.5 14.4 9.9C15.2 9.7 16.1 9.6 17 9.6C17.9 9.6 18.8 9.7 19.6 9.9C21.6 8.5 22.5 8.8 22.5 8.8C23.1 10.2 22.7 11.3 22.6 11.5C23.3 12.2 23.7 13.1 23.7 14.2C23.7 18 21.3 18.8 19 19.1C19.4 19.5 19.7 20.2 19.7 21.3C19.7 22.9 19.7 24.2 19.7 24.6C19.7 24.9 19.9 25.2 20.4 25.1C24.1 23.9 27 20.5 27 16C27 11 23 7 16 7Z" fill="white"></path><text x="38" y="21" font-family="Arial,Helvetica,sans-serif" font-size="13" font-weight="700" fill="#5B5F60">GitHub</text></g></svg>